{"title":"Bas Rutten Punk Payback All Episodes","uid":7578238,"size":2187951127,"categoryP":"video","categoryS":"tv_shows","magnet":"?xt=urn:btih:5c5ea0351d02a4b6571207afd8c53f5ee06a3c61&amp;dn=Bas+Rutten+Punk+Payback+All+Episodes&amp;tr=udp%3A%2F%2Ftracker.openbittorrent.com%3A80&amp;tr=udp%3A%2F%2Fopen.demonii.com%3A1337&amp;tr=udp%3A%2F%2Ftracker.coppersurfer.tk%3A6969&amp;tr=udp%3A%2F%2Fexodus.desync.com%3A6969","seeders":1,"leechers":0,"uploader":"Enemy_Hero","files":-1,"time":1346169079,"description":"UFC heavyweight champ and 3x King of Pancrase, Bas Rutten, has surveyed hundreds of hours of footage and found the best examples of punks who have gotten away with their crimes.  Along with the hottest stars of MMA, motocross, and skateboarding, Bas will reenact each scenario, demonstrating the necessary combat moves one would need to survive on the streets.  Watch out punks; it's time for the little guy to take charge in Punk Payback.\n\nEpisodes 1-9 of Season 1:\n\nI know there's one more episode available and as soon as I can get it I'll put it up.\n\nPretty much all of the files are encoded as follows\n\nFormat                           : MPEG-4\nFormat profile                   : Base Media\nCodec ID                         : isom\nFile size                        : 264 MiB\nDuration                         : 21mn 59s\nOverall bit rate                 : 1 678 Kbps\nEncoded date                     : UTC 2011-11-02 05:18:12\nTagged date                      : UTC 2011-11-02 05:18:12\nWriting application              : Yamb 2.1.0.0 [http://yamb.unite-video.com]\n\nVideo\nID                               : 1\nFormat                           : AVC\nFormat/Info                      : Advanced Video Codec\nFormat profile                   : &lt;a class=&quot;__cf_email__&quot; href=&quot;/cdn-cgi/l/email-protection&quot; data-cfemail=&quot;e6ae8f818ea6aad5c8d7&quot;&gt;[email&amp;#160;protected]&lt;/a&gt;&lt;script data-cfhash='f9e31' type=&quot;text/javascript&quot;&gt;\n/* &lt;![CDATA[ */!function(){try{var t=&quot;currentScript&quot;in document?document.currentScript:function(){for(var t=document.getElementsByTagName(&quot;script&quot;),e=t.length;e--;)if(t[e].getAttribute(&quot;data-cfhash&quot;))return t[e]}();if(t&amp;&amp;t.previousSibling){var e,r,n,i,c=t.previousSibling,a=c.getAttribute(&quot;data-cfemail&quot;);if(a){for(e=&quot;&quot;,r=parseInt(a.substr(0,2),16),n=2;a.length-n;n+=2)i=parseInt(a.substr(n,2),16)^r,e+=String.fromCharCode(i);e=document.createTextNode(e),c.parentNode.replaceChild(e,c)}t.parentNode.removeChild(t);}}catch(u){}}()/* ]]&gt; */&lt;/script&gt;\nFormat settings, CABAC           : Yes\nFormat settings, ReFrames        : 4 frames\nCodec ID                         : avc1\nCodec ID/Info                    : Advanced Video Coding\nDuration                         : 21mn 59s\nBit rate mode                    : Variable\nBit rate                         : 1 480 Kbps\nMaximum bit rate                 : 2 014 Kbps\nWidth                            : 704 pixels\nHeight                           : 400 pixels\nDisplay aspect ratio             : 16:9\nFrame rate mode                  : Constant\nFrame rate                       : 59.940 fps\nResolution                       : 24 bits\nColorimetry                      : 4:2:0\nScan type                        : Progressive\nBits/(Pixel*Frame)               : 0.088\nStream size                      : 233 MiB (88%)\nWriting library                  : x264 core 88 r1471 1144615\n\n\nAudio\nID                               : 2\nFormat                           : AAC\nFormat/Info                      : Advanced Audio Codec\nFormat version                   : Version 4\nFormat profile                   : LC\nFormat settings, SBR             : No\nCodec ID                         : 40\nDuration                         : 21mn 59s\nBit rate mode                    : Variable\nBit rate                         : 192 Kbps\nMaximum bit rate                 : 214 Kbps\nChannel(s)                       : 2 channels\nChannel positions                : L R\nSampling rate                    : 48.0 KHz\nResolution                       : 16 bits\nStream size                      : 29.9 MiB (11%)\n\nIt's in a .RAR file but only for the purposes of web seeding from my dropbox. So don't worry this will never be offline. Enjoy and share the punk payback...\t","torrent":{"xt":"urn:btih:5c5ea0351d02a4b6571207afd8c53f5ee06a3c61","amp;dn":"Bas+Rutten+Punk+Payback+All+Episodes","amp;tr":["udp%3A%2F%2Ftracker.openbittorrent.com%3A80","udp%3A%2F%2Fopen.demonii.com%3A1337","udp%3A%2F%2Ftracker.coppersurfer.tk%3A6969","udp%3A%2F%2Fexodus.desync.com%3A6969"],"infoHash":"5c5ea0351d02a4b6571207afd8c53f5ee06a3c61","infoHashBuffer":{"type":"Buffer","data":[92,94,160,53,29,2,164,182,87,18,7,175,216,197,63,94,224,106,60,97]},"announce":[],"urlList":[]}}